<svg
  width="72"
  height="72"
  viewBox="0 0 36 36"
  fill="none"
  xmlns="http://www.w3.org/2000/svg"
>
  <path
    d="M11.2042 23.1495H21.395V23.1496L21.409 23.1494C21.7516 23.1446 22.0851 23.0393 22.3684 22.8467C22.6517 22.6541 22.8722 22.3826 23.0027 22.0659C23.1331 21.7491 23.1677 21.401 23.1022 21.0648C23.0366 20.7286 22.8739 20.419 22.634 20.1744L22.6341 20.1743L22.6274 20.1676L3.98239 1.50764L3.98243 1.50761L3.9751 1.50042C3.7305 1.2606 3.42089 1.09784 3.08466 1.03231C2.74843 0.966789 2.40037 1.00139 2.08361 1.13181C1.76686 1.26224 1.49535 1.48277 1.30275 1.76604C1.11014 2.04932 1.00491 2.3829 1.0001 2.72542L1 2.72542V2.73947V2.75447V29.1395C1 30.6944 2.88478 31.4937 3.98678 30.3669L11.2042 23.1495Z"
    fill="#311E5E"
    stroke="#FFC50D"
    stroke-width="2"
  />
  <path
    d="M25.3333 23.1333V20.8833C25.3333 19.6631 24.2934 18.8 23.1667 18.8H20.8333C19.7066 18.8 18.6667 19.6631 18.6667 20.8833V23.1333H16.1667C15.0399 23.1333 14 23.9964 14 25.2167V27.3833C14 28.6035 15.0399 29.4667 16.1667 29.4667H18.6667V31.7167C18.6667 32.9369 19.7066 33.8 20.8333 33.8H23.1667C24.2934 33.8 25.3333 32.9369 25.3333 31.7167V29.4667H27.8333C28.9601 29.4667 30 28.6035 30 27.3833V25.2167C30 23.9964 28.9601 23.1333 27.8333 23.1333H25.3333Z"
    fill="#311E5E"
    stroke="#FFC50D"
    stroke-width="2"
  />
</svg>
