<svg xmlns="http://www.w3.org/2000/svg" viewBox="0 0 512 512" width="512" height="512">
  <rect width="512" height="512" fill="#16032c"/>
  <path d="M386.7,434.23l-22.28,22.28-44.56-44.56-55.7,55.7-11.14-11.14c-33.06-33.06-36.46-84.72-10.21-121.61l-35.28-35.28c-36.89,26.25-88.55,22.85-121.61-10.21-36.85-36.85-36.85-96.82,0-133.68L197.33,44.35l22.28,22.28-111.4,111.4c-24.57,24.57-24.57,64.55,0,89.12,20.72,20.72,52.41,23.97,76.57,9.73l-54.29-54.29,94.69-94.69c52.21-52.21,137.16-52.21,189.37,0,52.21,52.21,52.21,137.16,0,189.37l-72.41,72.41,44.56,44.56Zm-66.84-66.84l72.41-72.41c39.93-39.93,39.93-104.89,0-144.82-39.93-39.93-104.89-39.93-144.82,0l-72.41,72.41,33.42,33.42,72.41-72.41c21.5-21.5,56.48-21.5,77.98,0,21.5,21.5,21.5,56.48,0,77.98l-72.41,72.41,33.42,33.42Zm-54.29,54.29l32.01-32.01-32.01-32.01c-11.6,19.67-11.6,44.34,0,64.02Zm-1.41-109.99l72.41-72.41c9.21-9.21,9.21-24.21,0-33.42-9.21-9.21-24.21-9.21-33.42,0l-72.41,72.41,33.42,33.42Z" fill="#ffc400" stroke="#ffc400" stroke-miterlimit="10"/>
</svg>