<svg width="36" height="36" viewBox="0 0 36 36" fill="none" xmlns="http://www.w3.org/2000/svg">
<path d="M26.7725 13.3296C26.3741 13.4303 25.9988 13.5983 25.6618 13.8237C25.4265 13.3803 25.0995 12.9916 24.702 12.6835C24.2704 12.3489 23.7673 12.1186 23.232 12.0104C22.7399 11.9109 22.2328 11.9172 21.7441 12.0282C21.6825 12.0322 21.6214 12.0419 21.5615 12.0572C21.1782 12.1553 20.8232 12.3143 20.5061 12.5224C20.267 12.0786 19.9362 11.6902 19.5351 11.3834C19.1009 11.0513 18.5962 10.8237 18.0599 10.7181C17.5673 10.6212 17.0603 10.6297 16.5721 10.7424C16.5104 10.7465 16.4491 10.7564 16.3891 10.772C16.1842 10.825 15.9876 10.8955 15.8007 10.9817V7.07196C15.8007 6.12462 15.4244 5.21608 14.7545 4.5462C14.0846 3.87633 13.1761 3.5 12.2287 3.5C10.2619 3.5 8.65678 5.1051 8.65678 7.07196V15.4319C8.59367 15.4013 8.5296 15.3725 8.46463 15.3456C8.02647 15.1641 7.55657 15.0718 7.08235 15.0738C5.10376 15.0752 3.5 16.6797 3.5 18.6586V20.5748C3.5 21.4156 3.6131 22.3551 3.78686 23.2907L3.78738 23.2935C4.26054 25.8021 5.5738 28.0748 7.51097 29.7374C9.44728 31.3993 11.8916 32.3526 14.4417 32.4406C16.3863 32.5198 18.3333 32.5198 20.2779 32.4406C22.828 32.3526 25.2723 31.3993 27.2086 29.7374C29.1458 28.0748 30.4591 25.8021 30.9322 23.2935L30.9327 23.2907C31.1064 22.3557 31.2196 21.4289 31.2196 20.5748V16.7945C31.2196 16.7943 31.2196 16.7941 31.2196 16.794C31.2198 16.2504 31.0959 15.714 30.8574 15.2255C30.6189 14.7369 30.2719 14.3092 29.843 13.975C29.4141 13.6409 28.9145 13.409 28.3824 13.2972C27.8503 13.1853 27.2997 13.1964 26.7725 13.3296Z" fill="#311E5E" stroke="#FFC50D" stroke-width="2" stroke-linejoin="round"/>
</svg>
